<svg width="873" height="1000" xmlns="http://www.w3.org/2000/svg" xmlns:xlink="http://www.w3.org/1999/xlink" xml:space="preserve" overflow="hidden"><g transform="translate(-230 -180)"><path d="M525.5 388.5C684.006 388.5 812.5 393.835 812.5 400.416L812.5 519.584C812.5 526.165 684.006 531.5 525.5 531.5" stroke="#C6D9F1" stroke-width="55" stroke-linecap="round" stroke-linejoin="round" stroke-miterlimit="10" fill="none" fill-rule="evenodd"/><path d="M519.5 320.5 818.614 320.5" stroke="#C6D9F1" stroke-width="55" stroke-linecap="round" stroke-linejoin="round" stroke-miterlimit="10" fill="none" fill-rule="evenodd"/><path d="M323.5 637.5 518.678 637.501" stroke="#C6D9F1" stroke-width="55" stroke-linecap="round" stroke-linejoin="round" stroke-miterlimit="10" fill="none" fill-rule="evenodd"/><path d="M394.5 459.5 941.057 459.5" stroke="#C6D9F1" stroke-width="55" stroke-linecap="round" stroke-linejoin="round" stroke-miterlimit="10" fill="none" fill-rule="evenodd"/><path d="M817.5 639.5 1012.68 639.5" stroke="#C6D9F1" stroke-width="55" stroke-linecap="round" stroke-linejoin="round" stroke-miterlimit="10" fill="none" fill-rule="evenodd"/><path d="M856.129 799.512 507.5 640.5" stroke="#C6D9F1" stroke-width="55" stroke-linecap="round" stroke-linejoin="round" stroke-miterlimit="10" fill="none" fill-rule="evenodd"/><path d="M0 0 316.545 152.209" stroke="#C6D9F1" stroke-width="55" stroke-linecap="round" stroke-linejoin="round" stroke-miterlimit="10" fill="none" fill-rule="evenodd" transform="matrix(1 0 0 -1 480.5 799.709)"/><path d="M844.542 636.441 663.5 552.5" stroke="#C6D9F1" stroke-width="55" stroke-linecap="round" stroke-linejoin="round" stroke-miterlimit="10" fill="none" fill-rule="evenodd"/><path d="M0 0 165.94 89.0982" stroke="#C6D9F1" stroke-width="55" stroke-linecap="round" stroke-linejoin="round" stroke-miterlimit="10" fill="none" fill-rule="evenodd" transform="matrix(1 0 0 -1 503.5 632.598)"/><g><text fill="#FF9933" font-family="Lucida Handwriting,Lucida Handwriting_MSFontService,sans-serif" font-style="italic" font-weight="700" font-size="64" transform="matrix(1 0 0 1 330.683 1146)">50th  Anniversary</text></g><path d="M257 636.5C257 409.235 440.339 225 666.5 225 892.661 225 1076 409.235 1076 636.5 1076 863.765 892.661 1048 666.5 1048 440.339 1048 257 863.765 257 636.5Z" stroke="#C6D9F1" stroke-width="53.8542" stroke-linejoin="round" stroke-miterlimit="10" fill="none" fill-rule="evenodd"/><rect x="478" y="954" width="375" height="124" fill="#FFFFFF"/><path d="M851.094 1004.45 732.5 867.5" stroke="#C6D9F1" stroke-width="55" stroke-linecap="round" stroke-linejoin="round" stroke-miterlimit="10" fill="none" fill-rule="evenodd"/><path d="M0 0 118.021 139.233" stroke="#C6D9F1" stroke-width="55" stroke-linecap="round" stroke-linejoin="round" stroke-miterlimit="10" fill="none" fill-rule="evenodd" transform="matrix(1 0 0 -1 478.5 1003.73)"/><path d="M0 0 0.000360892 235.041" stroke="#C6D9F1" stroke-width="55" stroke-linecap="round" stroke-linejoin="round" stroke-miterlimit="10" fill="none" fill-rule="evenodd" transform="matrix(1 0 0 -1 664.5 1055.54)"/><rect x="567" y="180" width="196" height="90.9997" fill="#FFFFFF"/><path d="M0 0 0.000360892 314.291" stroke="#C6D9F1" stroke-width="55" stroke-linecap="round" stroke-linejoin="round" stroke-miterlimit="10" fill="none" fill-rule="evenodd" transform="matrix(1 0 0 -1 664.5 533.791)"/><path d="M738.5 235.5C738.5 222.797 748.797 212.5 761.5 212.5 774.202 212.5 784.5 222.797 784.5 235.5 784.5 248.203 774.202 258.5 761.5 258.5 748.797 258.5 738.5 248.203 738.5 235.5Z" stroke="#C6D9F1" stroke-width="9.16667" stroke-linejoin="round" stroke-miterlimit="10" fill="#C6D9F1" fill-rule="evenodd"/><path d="M547.5 236.5C547.5 223.797 557.574 213.5 570 213.5 582.427 213.5 592.5 223.797 592.5 236.5 592.5 249.203 582.427 259.5 570 259.5 557.574 259.5 547.5 249.203 547.5 236.5Z" stroke="#C6D9F1" stroke-width="9.16667" stroke-linejoin="round" stroke-miterlimit="10" fill="#C6D9F1" fill-rule="evenodd"/></g></svg>